<?xml version="1.0" standalone="no"?>
<svg xmlns:xlink="http://www.w3.org/1999/xlink" id="wave" style="transform:rotate(0deg); transition: 0.3s" viewBox="0 0 1440 240" version="1.1" xmlns="http://www.w3.org/2000/svg"><defs><linearGradient id="sw-gradient-0" x1="0" x2="0" y1="1" y2="0"><stop stop-color="rgba(122, 25, 241, 0.46)" offset="0%"/><stop stop-color="rgba(255, 255, 255, 1)" offset="100%"/></linearGradient></defs><path style="transform:translate(0, 0px); opacity:1" fill="url(#sw-gradient-0)" d="M0,0L24,24C48,48,96,96,144,120C192,144,240,144,288,132C336,120,384,96,432,104C480,112,528,152,576,164C624,176,672,160,720,132C768,104,816,64,864,60C912,56,960,88,1008,104C1056,120,1104,120,1152,116C1200,112,1248,104,1296,116C1344,128,1392,160,1440,180C1488,200,1536,208,1584,188C1632,168,1680,120,1728,108C1776,96,1824,120,1872,136C1920,152,1968,160,2016,160C2064,160,2112,152,2160,140C2208,128,2256,112,2304,104C2352,96,2400,96,2448,80C2496,64,2544,32,2592,44C2640,56,2688,112,2736,136C2784,160,2832,152,2880,156C2928,160,2976,176,3024,160C3072,144,3120,96,3168,76C3216,56,3264,64,3312,92C3360,120,3408,168,3432,192L3456,216L3456,240L3432,240C3408,240,3360,240,3312,240C3264,240,3216,240,3168,240C3120,240,3072,240,3024,240C2976,240,2928,240,2880,240C2832,240,2784,240,2736,240C2688,240,2640,240,2592,240C2544,240,2496,240,2448,240C2400,240,2352,240,2304,240C2256,240,2208,240,2160,240C2112,240,2064,240,2016,240C1968,240,1920,240,1872,240C1824,240,1776,240,1728,240C1680,240,1632,240,1584,240C1536,240,1488,240,1440,240C1392,240,1344,240,1296,240C1248,240,1200,240,1152,240C1104,240,1056,240,1008,240C960,240,912,240,864,240C816,240,768,240,720,240C672,240,624,240,576,240C528,240,480,240,432,240C384,240,336,240,288,240C240,240,192,240,144,240C96,240,48,240,24,240L0,240Z"/></svg>