<?xml version="1.0" standalone="no"?>
<svg xmlns:xlink="http://www.w3.org/1999/xlink" id="wave" style="transform:rotate(0deg); transition: 0.3s" viewBox="0 0 1440 160" version="1.1" xmlns="http://www.w3.org/2000/svg"><defs><linearGradient id="sw-gradient-0" x1="0" x2="0" y1="1" y2="0"><stop stop-color="rgba(255, 255, 255, 1)" offset="0%"/><stop stop-color="rgba(255, 255, 255, 1)" offset="100%"/></linearGradient></defs><path style="transform:translate(0, 0px); opacity:1" fill="url(#sw-gradient-0)" d="M0,0L120,16C240,32,480,64,720,80C960,96,1200,96,1440,88C1680,80,1920,64,2160,69.3C2400,75,2640,101,2880,109.3C3120,117,3360,107,3600,88C3840,69,4080,43,4320,40C4560,37,4800,59,5040,69.3C5280,80,5520,80,5760,77.3C6000,75,6240,69,6480,77.3C6720,85,6960,107,7200,120C7440,133,7680,139,7920,125.3C8160,112,8400,80,8640,72C8880,64,9120,80,9360,90.7C9600,101,9840,107,10080,106.7C10320,107,10560,101,10800,93.3C11040,85,11280,75,11520,69.3C11760,64,12000,64,12240,53.3C12480,43,12720,21,12960,29.3C13200,37,13440,75,13680,90.7C13920,107,14160,101,14400,104C14640,107,14880,117,15120,106.7C15360,96,15600,64,15840,50.7C16080,37,16320,43,16560,61.3C16800,80,17040,112,17160,128L17280,144L17280,160L17160,160C17040,160,16800,160,16560,160C16320,160,16080,160,15840,160C15600,160,15360,160,15120,160C14880,160,14640,160,14400,160C14160,160,13920,160,13680,160C13440,160,13200,160,12960,160C12720,160,12480,160,12240,160C12000,160,11760,160,11520,160C11280,160,11040,160,10800,160C10560,160,10320,160,10080,160C9840,160,9600,160,9360,160C9120,160,8880,160,8640,160C8400,160,8160,160,7920,160C7680,160,7440,160,7200,160C6960,160,6720,160,6480,160C6240,160,6000,160,5760,160C5520,160,5280,160,5040,160C4800,160,4560,160,4320,160C4080,160,3840,160,3600,160C3360,160,3120,160,2880,160C2640,160,2400,160,2160,160C1920,160,1680,160,1440,160C1200,160,960,160,720,160C480,160,240,160,120,160L0,160Z"/></svg>